<?xml version="1.0" encoding="UTF-8"?>
<svg version="1.1" xmlns="http://www.w3.org/2000/svg" width="800" height="800">
<path d="M0 0 C1.55809891 -0.00855011 1.55809891 -0.00855011 3.14767456 -0.01727295 C5.34111533 -0.02667004 7.53456987 -0.03323572 9.72802734 -0.03710938 C12.99734013 -0.04670665 16.26599336 -0.07773635 19.53515625 -0.109375 C34.21390454 -0.18329596 48.42590045 0.96132101 62.9296875 3.203125 C64.18507324 3.39664551 65.44045898 3.59016602 66.73388672 3.78955078 C69.60471137 4.27111723 72.45334669 4.80545023 75.3046875 5.390625 C76.32175781 5.59856689 77.33882813 5.80650879 78.38671875 6.02075195 C119.63512656 14.84031283 159.25357252 32.82472711 192.9296875 58.203125 C193.51202148 58.64124512 194.09435547 59.07936523 194.69433594 59.53076172 C202.14304867 65.17317178 209.20528649 71.10181454 216.015625 77.5 C218.25139216 79.57392878 220.512363 81.57281547 222.82421875 83.55859375 C226.86932884 87.08468333 230.58683017 90.84034706 234.2421875 94.765625 C234.89026367 95.46034912 235.53833984 96.15507324 236.20605469 96.87084961 C241.68719712 102.81552075 246.7711737 108.9873579 251.61914062 115.45556641 C252.95611514 117.23836513 254.30978893 119.00766357 255.6640625 120.77734375 C290.17788116 166.34241517 314.23847635 226.93726477 314.05273533 284.63272285 C314.05388917 285.53065748 314.05504302 286.42859211 314.05623183 287.35373688 C314.05886854 290.3480771 314.05440075 293.34236302 314.04994202 296.33670044 C314.05037832 298.51085131 314.05125432 300.68500213 314.05253118 302.85915267 C314.0547645 308.82239216 314.05077075 314.78561363 314.04575312 320.74885082 C314.04143213 327.18363633 314.04289622 333.61842084 314.0436554 340.0532074 C314.04435223 351.19823563 314.04107871 362.34325836 314.03541756 373.48828506 C314.02949666 385.174674 314.02565083 396.8610606 314.02456474 408.54745102 C314.024496 409.27459568 314.02442726 410.00174035 314.02435644 410.7509197 C314.0240181 414.44385369 314.02371672 418.13678768 314.02342957 421.82972167 C314.02133022 447.97372229 314.01459585 474.11771985 314.00512695 500.26171875 C313.99593977 525.6572264 313.9888575 551.05273321 313.98461914 576.44824219 C313.98442185 577.62283833 313.98442185 577.62283833 313.98422058 578.82116368 C313.98290203 586.68515243 313.98162622 594.5491412 313.98038172 602.41312997 C313.97784563 618.43239227 313.97502438 634.45165452 313.97203064 650.47091675 C313.97189335 651.20742553 313.97175606 651.94393432 313.97161461 652.70276155 C313.96241692 701.86955066 313.94655124 751.03633798 313.9296875 800.203125 C301.30337266 800.70576186 288.67953265 801.08362009 276.04515471 801.31384844 C270.17406312 801.42451078 264.30993698 801.57378581 258.44285679 801.82035828 C230.34809506 802.96935 207.96623729 802.89130448 186.26662979 783.29178876 C178.04872489 775.53614147 170.539176 767.11310588 163.44018555 758.33300781 C162.90752705 757.67434975 162.37486855 757.01569168 161.82606888 756.33707428 C161.41007809 755.82127556 160.9940873 755.30547684 160.56549072 754.77404785 C156.06154665 749.2579007 151.22866184 744.03485229 146.42475641 738.78087807 C135.55931473 726.88376455 125.1147347 714.68992055 114.9296875 702.203125 C111.57485312 703.66122309 109.37957086 705.50599064 106.80413818 708.08816528 C105.99088074 708.8986734 105.17762329 709.70918152 104.33972168 710.54425049 C103.45643188 711.43473083 102.57314209 712.32521118 101.66308594 713.24267578 C100.71712485 714.1892012 99.77072277 715.13528607 98.82391357 716.08096313 C96.25775132 718.64655174 93.69780085 721.21825859 91.13891888 723.79110575 C88.46258653 726.47994334 85.7805867 729.16311562 83.09918213 731.84689331 C78.02372967 736.92856113 72.95339687 742.01530555 67.88488221 747.10389221 C62.11375845 752.89737318 56.33695243 758.68517397 50.55966139 764.4725039 C38.67666793 776.37640065 26.80083304 788.28741265 14.9296875 800.203125 C11.57485312 798.74502691 9.37957086 796.90025936 6.80413818 794.31808472 C5.58425201 793.10232254 5.58425201 793.10232254 4.33972168 791.86199951 C3.45643188 790.97151917 2.57314209 790.08103882 1.66308594 789.16357422 C0.71712485 788.2170488 -0.22927723 787.27096393 -1.17608643 786.32528687 C-3.74224868 783.75969826 -6.30219915 781.18799141 -8.86108112 778.61514425 C-11.53741347 775.92630666 -14.2194133 773.24313438 -16.90081787 770.55935669 C-21.97627033 765.47768887 -27.04660313 760.39094445 -32.11511779 755.30235779 C-37.88624155 749.50887682 -43.66304757 743.72107603 -49.44033861 737.9337461 C-61.32333207 726.02984935 -73.19916696 714.11883735 -85.0703125 702.203125 C-88.41931872 703.62404481 -90.23390255 705.27606245 -92.51622009 708.08816528 C-93.18351639 708.8986734 -93.85081268 709.70918152 -94.53833008 710.54425049 C-95.26294434 711.43473083 -95.98755859 712.32521118 -96.73413086 713.24267578 C-104.82451063 723.02428984 -113.18057992 732.52375478 -121.71634579 741.91792488 C-126.29274915 746.96868765 -130.82972254 752.02201151 -135.08883286 757.34575653 C-135.60567768 757.98978676 -136.12252251 758.63381699 -136.6550293 759.29736328 C-137.05970563 759.80167809 -137.46438196 760.30599289 -137.88132122 760.82558996 C-152.24147363 778.59527447 -169.894086 798.91779173 -193.88646532 801.63155459 C-207.24066704 802.68401606 -220.63268716 802.18808965 -233.99963307 801.64025259 C-239.88748996 801.4226366 -245.77734444 801.32983168 -251.66809845 801.2250824 C-263.14059703 801.00338906 -274.60445473 800.64827552 -286.0703125 800.203125 C-286.12171272 750.48999726 -286.16946863 700.77686768 -286.19734192 651.0637207 C-286.19796318 649.95852244 -286.19796318 649.95852244 -286.19859698 648.83099695 C-286.20757754 632.81499863 -286.21588782 616.79900003 -286.22350849 600.78300101 C-286.22725021 592.92776233 -286.23113991 585.07252372 -286.23510742 577.21728516 C-286.2354997 576.43563096 -286.23589198 575.65397676 -286.23629614 574.84863608 C-286.24906019 549.55293003 -286.27157911 524.2572442 -286.29920416 498.96155038 C-286.3275614 472.94791228 -286.34598258 446.93428535 -286.35205747 420.92063206 C-286.35292182 417.23899882 -286.35389873 413.55736561 -286.35494423 409.87573242 C-286.3551465 409.15119657 -286.35534877 408.42666072 -286.35555717 407.68016924 C-286.35909024 396.05825933 -286.37297161 384.43638416 -286.3908086 372.81448837 C-286.40855506 361.10565673 -286.41495403 349.39686224 -286.41081663 337.68801767 C-286.40890311 331.35402121 -286.41174958 325.02012596 -286.42792892 318.68614769 C-286.44267385 312.87080971 -286.44317157 307.05563969 -286.43300918 301.2402935 C-286.43175572 299.15239373 -286.43543658 297.06448288 -286.44496205 294.97660446 C-286.52607615 276.07603699 -284.68559133 257.35766344 -280.8828125 238.828125 C-280.67487061 237.81105469 -280.46692871 236.79398438 -280.25268555 235.74609375 C-271.43312467 194.49768594 -253.44871039 154.87923998 -228.0703125 121.203125 C-227.63219238 120.62079102 -227.19407227 120.03845703 -226.74267578 119.43847656 C-221.10026572 111.98976383 -215.17162296 104.92752601 -208.7734375 98.1171875 C-206.69950872 95.88142034 -204.70062203 93.6204495 -202.71484375 91.30859375 C-199.18875417 87.26348366 -195.43309044 83.54598233 -191.5078125 79.890625 C-190.46572632 78.91851074 -190.46572632 78.91851074 -189.40258789 77.92675781 C-183.45791675 72.44561538 -177.2860796 67.3616388 -170.81787109 62.51367188 C-169.03507237 61.17669736 -167.26577393 59.82302357 -165.49609375 58.46875 C-119.08144217 23.3114065 -58.57092803 0.25747072 0 0 Z M-107.0703125 255.203125 C-107.92753906 255.63882813 -108.78476562 256.07453125 -109.66796875 256.5234375 C-119.46759685 261.93318695 -126.02430786 269.27533481 -131.0703125 279.203125 C-131.48539063 279.98816406 -131.90046875 280.77320313 -132.328125 281.58203125 C-136.8698787 291.72951592 -137.00689291 305.82295926 -133.4453125 316.328125 C-132.70687334 317.9779943 -131.91521498 319.60515726 -131.0703125 321.203125 C-130.41675781 322.48896484 -130.41675781 322.48896484 -129.75 323.80078125 C-124.34025055 333.60040935 -116.99810269 340.15712036 -107.0703125 345.203125 C-106.28527344 345.61820312 -105.50023437 346.03328125 -104.69140625 346.4609375 C-94.54392158 351.0026912 -80.45047824 351.13970541 -69.9453125 347.578125 C-68.2954432 346.83968584 -66.66828024 346.04802748 -65.0703125 345.203125 C-64.21308594 344.76742187 -63.35585938 344.33171875 -62.47265625 343.8828125 C-52.67302815 338.47306305 -46.11631714 331.13091519 -41.0703125 321.203125 C-40.65523438 320.41808594 -40.24015625 319.63304687 -39.8125 318.82421875 C-35.2707463 308.67673408 -35.13373209 294.58329074 -38.6953125 284.078125 C-39.43375166 282.4282557 -40.22541002 280.80109274 -41.0703125 279.203125 C-41.50601563 278.34589844 -41.94171875 277.48867188 -42.390625 276.60546875 C-47.80037445 266.80584065 -55.14252231 260.24912964 -65.0703125 255.203125 C-65.85535156 254.78804687 -66.64039063 254.37296875 -67.44921875 253.9453125 C-79.26850809 248.65530193 -95.67160418 249.17622175 -107.0703125 255.203125 Z M92.9296875 255.203125 C92.07246094 255.63882813 91.21523438 256.07453125 90.33203125 256.5234375 C80.53240315 261.93318695 73.97569214 269.27533481 68.9296875 279.203125 C68.51460938 279.98816406 68.09953125 280.77320313 67.671875 281.58203125 C63.1301213 291.72951592 62.99310709 305.82295926 66.5546875 316.328125 C67.29312666 317.9779943 68.08478502 319.60515726 68.9296875 321.203125 C69.58324219 322.48896484 69.58324219 322.48896484 70.25 323.80078125 C75.65974945 333.60040935 83.00189731 340.15712036 92.9296875 345.203125 C93.71472656 345.61820312 94.49976563 346.03328125 95.30859375 346.4609375 C105.45607842 351.0026912 119.54952176 351.13970541 130.0546875 347.578125 C131.7045568 346.83968584 133.33171976 346.04802748 134.9296875 345.203125 C135.78691406 344.76742187 136.64414062 344.33171875 137.52734375 343.8828125 C147.32697185 338.47306305 153.88368286 331.13091519 158.9296875 321.203125 C159.34476563 320.41808594 159.75984375 319.63304687 160.1875 318.82421875 C164.7292537 308.67673408 164.86626791 294.58329074 161.3046875 284.078125 C160.56624834 282.4282557 159.77458998 280.80109274 158.9296875 279.203125 C158.49398437 278.34589844 158.05828125 277.48867188 157.609375 276.60546875 C152.19962555 266.80584065 144.85747769 260.24912964 134.9296875 255.203125 C134.14464844 254.78804687 133.35960937 254.37296875 132.55078125 253.9453125 C120.73149191 248.65530193 104.32839582 249.17622175 92.9296875 255.203125 Z " fill="#FFFFFF" transform="translate(386.0703125,-0.203125)"/>
</svg>
